<svg width="25" height="25" viewBox="0 0 25 25" fill="none" xmlns="http://www.w3.org/2000/svg">
<path d="M21.5322 7.87817L19.2822 6.56517M21.5322 7.87817V10.1282M21.5322 7.87817L19.2822 9.19117M3.53223 7.87817L5.78223 6.56517M3.53223 7.87817L5.78223 9.19117M3.53223 7.87817V10.1282M12.5322 13.1282L14.7822 11.8152M12.5322 13.1282L10.2822 11.8152M12.5322 13.1282V15.3782M12.5322 22.1282L14.7822 20.8152M12.5322 22.1282V19.8782M12.5322 22.1282L10.2822 20.8152M10.2822 3.94017L12.5322 2.62817L14.7822 3.94117M21.5322 14.6282V16.8782L19.2822 18.1912M5.78223 18.1912L3.53223 16.8782V14.6282" stroke="white" stroke-width="1.5" stroke-linecap="round" stroke-linejoin="round"/>
</svg>
