<svg width="25" height="24" viewBox="0 0 25 24" fill="none" xmlns="http://www.w3.org/2000/svg">
<path d="M12.8656 2C7.3406 2 2.8656 6.59118 2.8656 12.2539C2.8656 16.7853 5.7306 20.6279 9.7031 21.9823C10.2031 22.0788 10.3864 21.7618 10.3864 21.4892C10.3864 21.2457 10.3781 20.6006 10.3739 19.7461C7.59227 20.3647 7.0056 18.3703 7.0056 18.3703C6.5506 17.1869 5.8931 16.8707 5.8931 16.8707C4.98727 16.235 5.9631 16.2478 5.9631 16.2478C6.96727 16.3196 7.49477 17.3039 7.49477 17.3039C8.38643 18.8719 9.8356 18.4191 10.4073 18.1567C10.4973 17.4936 10.7548 17.0416 11.0406 16.7853C8.81977 16.5289 6.4856 15.6471 6.4856 11.7181C6.4856 10.5987 6.8731 9.68444 7.51477 8.96667C7.40227 8.70776 7.06477 7.66528 7.60227 6.2528C7.60227 6.2528 8.43977 5.97766 10.3523 7.30383C11.1523 7.07568 12.0023 6.96289 12.8523 6.95776C13.7023 6.96289 14.5523 7.07568 15.3523 7.30383C17.2523 5.97766 18.0898 6.2528 18.0898 6.2528C18.6273 7.66528 18.2898 8.70776 18.1898 8.96667C18.8273 9.68444 19.2148 10.5987 19.2148 11.7181C19.2148 15.6573 16.8773 16.5246 14.6523 16.7767C15.0023 17.0843 15.3273 17.7132 15.3273 18.6737C15.3273 20.046 15.3148 21.1483 15.3148 21.4816C15.3148 21.7507 15.4898 22.0711 16.0023 21.9686C20.0031 20.6236 22.8656 16.7784 22.8656 12.2539C22.8656 6.59118 18.3881 2 12.8656 2Z" fill="white"/>
</svg>
