<svg width="25" height="25" viewBox="0 0 25 25" fill="none" xmlns="http://www.w3.org/2000/svg">
<g clip-path="url(#clip0_8216_64159)">
<path d="M12.8656 1.11621C6.2356 1.11621 0.865601 6.48921 0.865601 13.1162C0.865601 18.4192 4.3036 22.9162 9.0706 24.5012C9.6706 24.6142 9.8906 24.2432 9.8906 23.9242C9.8906 23.6392 9.8806 22.8842 9.8756 21.8842C6.5376 22.6082 5.8336 20.2742 5.8336 20.2742C5.2876 18.8892 4.4986 18.5192 4.4986 18.5192C3.4116 17.7752 4.5826 17.7902 4.5826 17.7902C5.7876 17.8742 6.4206 19.0262 6.4206 19.0262C7.4906 20.8612 9.2296 20.3312 9.9156 20.0242C10.0236 19.2482 10.3326 18.7192 10.6756 18.4192C8.0106 18.1192 5.2096 17.0872 5.2096 12.4892C5.2096 11.1792 5.6746 10.1092 6.4446 9.26921C6.3096 8.96621 5.9046 7.74621 6.5496 6.09321C6.5496 6.09321 7.5546 5.77121 9.8496 7.32321C10.8096 7.05621 11.8296 6.92421 12.8496 6.91821C13.8696 6.92421 14.8896 7.05621 15.8496 7.32321C18.1296 5.77121 19.1346 6.09321 19.1346 6.09321C19.7796 7.74621 19.3746 8.96621 19.2546 9.26921C20.0196 10.1092 20.4846 11.1792 20.4846 12.4892C20.4846 17.0992 17.6796 18.1142 15.0096 18.4092C15.4296 18.7692 15.8196 19.5052 15.8196 20.6292C15.8196 22.2352 15.8046 23.5252 15.8046 23.9152C15.8046 24.2302 16.0146 24.6052 16.6296 24.4852C21.4306 22.9112 24.8656 18.4112 24.8656 13.1162C24.8656 6.48921 19.4926 1.11621 12.8656 1.11621Z" fill="white"/>
</g>
<defs>
<clipPath id="clip0_8216_64159">
<rect width="24" height="24" fill="white" transform="translate(0.865601 0.819336)"/>
</clipPath>
</defs>
</svg>
