<svg width="25" height="25" viewBox="0 0 25 25" fill="none" xmlns="http://www.w3.org/2000/svg">
<path fill-rule="evenodd" clip-rule="evenodd" d="M5.3656 4.06201C4.53717 4.06201 3.8656 4.73358 3.8656 5.56201V20.562C3.8656 21.3904 4.53717 22.062 5.3656 22.062H20.3656C21.194 22.062 21.8656 21.3904 21.8656 20.562V5.56201C21.8656 4.73358 21.194 4.06201 20.3656 4.06201H5.3656ZM9.38636 8.06473C9.39199 9.02098 8.67621 9.6102 7.82683 9.60598C7.02667 9.60176 6.32917 8.96473 6.33339 8.06614C6.33761 7.22098 7.00558 6.54176 7.87324 6.56145C8.75355 6.58114 9.39199 7.22661 9.38636 8.06473ZM13.1453 10.8238H10.6253H10.6239V19.3836H13.2873V19.1839C13.2873 18.804 13.287 18.424 13.2867 18.0439C13.2859 17.0301 13.285 16.0152 13.2902 15.0017C13.2916 14.7556 13.3028 14.4997 13.3661 14.2648C13.6037 13.3873 14.3927 12.8206 15.273 12.9599C15.8383 13.0484 16.2123 13.3761 16.3698 13.9091C16.4669 14.2423 16.5105 14.6009 16.5147 14.9483C16.5261 15.9959 16.5245 17.0435 16.5229 18.0912C16.5223 18.461 16.5217 18.831 16.5217 19.2008V19.3822H19.1936V19.1769C19.1936 18.7249 19.1934 18.273 19.1931 17.8211C19.1926 16.6916 19.192 15.5621 19.195 14.4322C19.1964 13.9217 19.1416 13.4183 19.0164 12.9247C18.8294 12.1906 18.4427 11.5831 17.8141 11.1444C17.3683 10.8322 16.8789 10.6311 16.3319 10.6086C16.2696 10.606 16.2068 10.6026 16.1437 10.5992C15.864 10.5841 15.5797 10.5687 15.3123 10.6227C14.5473 10.776 13.8752 11.1261 13.3675 11.7434C13.3085 11.8142 13.2508 11.8861 13.1647 11.9934L13.1453 12.0177V10.8238ZM6.54724 19.3864H9.19802V10.8293H6.54724V19.3864Z" fill="white"/>
</svg>
