<svg width="25" height="24" viewBox="0 0 25 24" fill="none" xmlns="http://www.w3.org/2000/svg">
<path fill-rule="evenodd" clip-rule="evenodd" d="M5.3656 3.24268C4.53717 3.24268 3.8656 3.91425 3.8656 4.74268V19.7427C3.8656 20.5711 4.53717 21.2427 5.3656 21.2427H20.3656C21.194 21.2427 21.8656 20.5711 21.8656 19.7427V4.74268C21.8656 3.91425 21.194 3.24268 20.3656 3.24268H5.3656ZM9.38636 7.2454C9.39199 8.20165 8.67621 8.79087 7.82683 8.78665C7.02667 8.78243 6.32917 8.1454 6.33339 7.24681C6.33761 6.40165 7.00558 5.72243 7.87324 5.74212C8.75355 5.76181 9.39199 6.40728 9.38636 7.2454ZM13.1453 10.0044H10.6253H10.6239V18.5643H13.2873V18.3646C13.2873 17.9847 13.287 17.6047 13.2867 17.2246C13.2859 16.2108 13.285 15.1959 13.2902 14.1824C13.2916 13.9363 13.3028 13.6804 13.3661 13.4455C13.6037 12.568 14.3927 12.0013 15.273 12.1406C15.8383 12.2291 16.2123 12.5568 16.3698 13.0898C16.4669 13.423 16.5105 13.7816 16.5147 14.129C16.5261 15.1766 16.5245 16.2242 16.5229 17.2719C16.5223 17.6417 16.5217 18.0117 16.5217 18.3815V18.5629H19.1936V18.3576C19.1936 17.9056 19.1934 17.4537 19.1931 17.0018C19.1926 15.8723 19.192 14.7428 19.195 13.6129C19.1964 13.1024 19.1416 12.599 19.0164 12.1054C18.8294 11.3713 18.4427 10.7638 17.8141 10.3251C17.3683 10.0129 16.8789 9.81178 16.3319 9.78928C16.2696 9.78669 16.2068 9.7833 16.1437 9.77989C15.864 9.76477 15.5797 9.74941 15.3123 9.80334C14.5473 9.95662 13.8752 10.3068 13.3675 10.9241C13.3085 10.9949 13.2508 11.0668 13.1647 11.1741L13.1453 11.1984V10.0044ZM6.54724 18.5671H9.19802V10.01H6.54724V18.5671Z" fill="white"/>
</svg>
