<svg width="25" height="25" viewBox="0 0 25 25" fill="none" xmlns="http://www.w3.org/2000/svg">
<path d="M20.8656 4.87817H6.8656C5.7626 4.87817 4.8656 5.77517 4.8656 6.87817V11.8782H6.8656V8.87817L13.2656 13.6782C13.4388 13.8078 13.6493 13.8779 13.8656 13.8779C14.0819 13.8779 14.2924 13.8078 14.4656 13.6782L20.8656 8.87817V17.8782H12.8656V19.8782H20.8656C21.9686 19.8782 22.8656 18.9812 22.8656 17.8782V6.87817C22.8656 5.77517 21.9686 4.87817 20.8656 4.87817ZM13.8656 11.6282L7.5316 6.87817H20.1996L13.8656 11.6282Z" fill="white"/>
<path d="M2.8656 12.8782H9.8656V14.8782H2.8656V12.8782ZM4.8656 15.8782H10.8656V17.8782H4.8656V15.8782ZM7.8656 18.8782H11.8656V20.8782H7.8656V18.8782Z" fill="white"/>
</svg>
