<svg width="25" height="25" viewBox="0 0 25 25" fill="none" xmlns="http://www.w3.org/2000/svg">
<path d="M18.6029 3.37613C17.8459 2.62213 16.5259 2.62513 15.7749 3.38113L13.9909 5.17213L11.7849 7.37813H7.19893C6.99376 7.37799 6.79353 7.44108 6.6255 7.55882C6.45748 7.67657 6.32983 7.84323 6.25993 8.03613L2.25993 19.0361C2.12693 19.4011 2.21793 19.8101 2.49193 20.0851L4.49193 22.0851C4.62638 22.2199 4.79662 22.3134 4.98251 22.3545C5.1684 22.3956 5.36218 22.3827 5.54093 22.3171L16.5409 18.3171C16.7338 18.2472 16.9005 18.1196 17.0182 17.9516C17.136 17.7835 17.1991 17.5833 17.1989 17.3781V12.7921L19.4069 10.5841L21.1989 8.78713C21.5769 8.40913 21.7849 7.90613 21.7839 7.37213C21.7839 6.83713 21.5749 6.33413 21.1959 5.95713L18.6029 3.37613ZM15.4919 11.6711C15.3989 11.7638 15.3251 11.874 15.2748 11.9954C15.2245 12.1167 15.1987 12.2468 15.1989 12.3781V16.6781L5.94993 20.0411L10.6209 15.3701C10.6469 15.3711 10.6729 15.3781 10.6989 15.3781C10.9956 15.3781 11.2856 15.2902 11.5323 15.1253C11.779 14.9605 11.9712 14.7262 12.0848 14.4522C12.1983 14.1781 12.228 13.8765 12.1701 13.5855C12.1122 13.2945 11.9694 13.0273 11.7596 12.8175C11.5498 12.6077 11.2825 12.4648 10.9916 12.407C10.7006 12.3491 10.399 12.3788 10.1249 12.4923C9.85082 12.6058 9.61655 12.7981 9.45173 13.0448C9.2869 13.2915 9.19893 13.5815 9.19893 13.8781C9.19893 13.9041 9.20593 13.9301 9.20693 13.9561L4.53593 18.6271L7.89893 9.37813H12.1989C12.4649 9.37813 12.7189 9.27313 12.9059 9.08513L14.6989 7.29213L17.2849 9.87813L15.4919 11.6711ZM18.6979 8.46313L16.1119 5.87713L17.1909 4.79313L19.7839 7.37413L18.6979 8.46313Z" fill="white"/>
</svg>
